<svg width="45" height="32" viewBox="0 0 45 32" fill="none" xmlns="http://www.w3.org/2000/svg"><path d="M6.31933 31.9945C9.80939 31.9945 12.6387 29.1626 12.6387 25.6691C12.6387 22.1757 9.80939 19.3438 6.31933 19.3438C2.82926 19.3438 0 22.1757 0 25.6691C0 29.1626 2.82926 31.9945 6.31933 31.9945Z" fill="#11271f"/><path d="M27.083 14.7531L33.1495 28.4159C34.4856 31.4521 38.0244 32.8256 41.0216 31.4883C44.0549 30.1509 45.4271 26.6087 44.091 23.6086L33.619 0.0419922L27.0469 14.7892L27.083 14.7531Z" fill="#11271f"/><path d="M25.9627 17.247L19.8961 3.58414C18.56 0.54795 15.0212 -0.825565 12.0241 0.511805C8.99078 1.84918 7.61859 5.3914 8.95467 8.39145L19.4267 31.9581L25.9988 17.2109L25.9627 17.247Z" fill="#11271f"/></svg>
