<svg width="26" height="18" viewBox="0 0 26 18" fill="none" xmlns="http://www.w3.org/2000/svg"><path d="M3.54801 10.8798C1.58245 10.8798 0 12.4637 0 14.4311C0 16.3985 1.5991 17.9824 3.54801 17.9824C5.49692 17.9824 7.09603 16.3819 7.09603 14.4311C7.09603 12.4804 5.49692 10.8798 3.54801 10.8798Z" fill="#071812"/><path d="M18.8901 0.025116L15.1921 8.31152H15.2088C15.2088 8.29484 18.6236 15.981 18.6236 15.981C19.3731 17.6816 21.372 18.4653 23.0544 17.715C24.7535 16.9647 25.5363 14.964 24.7868 13.28L18.8901 0.025116Z" fill="#071812"/><path d="M11.1743 2.02146C10.4247 0.304159 8.42581 -0.462791 6.74342 0.287486C5.04437 1.03776 4.26147 3.0385 5.01105 4.72246L10.9078 17.9774L14.6057 9.69097H14.589C14.589 9.70764 11.1743 2.02146 11.1743 2.02146Z" fill="#071812"/></svg>
